<svg xmlns="http://www.w3.org/2000/svg" width="64.066" height="29.166"><path d="M32.082 0c-6.64 0-12.27 4.502-14.014 10.602-1.516-3.236-4.8-5.502-8.586-5.502C4.278 5.1 0 9.378 0 14.582s4.278 9.484 9.482 9.484c3.785 0 7.07-2.268 8.586-5.504 1.745 6.1 7.373 10.604 14.014 10.604 6.592 0 12.19-4.436 13.98-10.467 1.545 3.162 4.79 5.366 8.52 5.366 5.204 0 9.484-4.28 9.484-9.484S59.786 5.1 54.582 5.1c-3.73 0-6.975 2.203-8.52 5.365C44.272 4.435 38.674 0 32.082 0zm0 5.566c5.013 0 9.018 4.003 9.018 9.016S37.095 23.6 32.082 23.6c-5.013 0-9.016-4.005-9.016-9.018 0-5.013 4.003-9.016 9.016-9.016zm-22.6 5.1c2.197 0 3.918 1.72 3.918 3.916 0 2.196-1.72 3.918-3.918 3.918-2.196 0-3.916-1.722-3.916-3.918s1.72-3.916 3.916-3.916zm45.1 0c2.196 0 3.918 1.72 3.918 3.916 0 2.196-1.722 3.918-3.918 3.918s-3.916-1.722-3.916-3.918 1.72-3.916 3.916-3.916z" style="line-height:normal;text-indent:0;text-align:start;text-decoration-line:none;text-decoration-style:solid;text-decoration-color:#000000;text-transform:none;block-progression:tb;isolation:auto;mix-blend-mode:normal" color="#000" font-family="sans-serif" white-space="normal" overflow="visible" solid-color="#000000"/></svg>