<svg xmlns="http://www.w3.org/2000/svg" width="195.7" height="73.879"><path d="M100.016 1c-6.64 0-12.27 4.502-14.014 10.602C84.486 8.366 81.2 6.1 77.416 6.1c-5.204 0-9.482 4.278-9.482 9.482s4.278 9.484 9.482 9.484c3.784 0 7.07-2.268 8.586-5.503 1.744 6.1 7.373 10.603 14.014 10.603 6.59 0 12.19-4.436 13.98-10.467 1.544 3.162 4.79 5.366 8.52 5.366 5.204 0 9.484-4.28 9.484-9.484S127.72 6.1 122.516 6.1c-3.73 0-6.976 2.203-8.52 5.365C112.206 5.435 106.606 1 100.016 1zm0 5.566c5.013 0 9.017 4.003 9.017 9.016s-4.004 9.018-9.017 9.018S91 20.595 91 15.582c0-5.013 4.003-9.016 9.016-9.016zm-22.6 5.1c2.196 0 3.918 1.72 3.918 3.916 0 2.196-1.722 3.918-3.918 3.918S73.5 17.778 73.5 15.582s1.72-3.916 3.916-3.916zm45.1 0c2.196 0 3.918 1.72 3.918 3.916 0 2.196-1.722 3.918-3.918 3.918-2.197 0-3.916-1.722-3.916-3.918s1.72-3.916 3.916-3.916zM11.7 41.078c-5 0-10.7 2.8-10.7 8.5V71.18c0 .7.3 1.1 1 1.1h.8c.7 0 1.1-.4 1.1-1.1V49.707c0-3.4 3.7-5.828 7.9-5.828s7.9 2.427 7.9 5.827V71.18c0 .7.4 1.1 1.1 1.1h.8c.7 0 1-.4 1-1.1V49.578c0-5.7-5.7-8.5-10.9-8.5zm180.4.4c-.7 0-.4.4-.4 1.1v9.9c0 1 .1 1.702.1 1.702h-.1s-1.9-4.4-7.2-4.4c-5.8 0-9.9 4.6-9.7 11.4 0 6.8 3.7 11.5 9.6 11.5 5.7 0 7.6-4.602 7.6-4.602h.1s-.2.6-.2 1.4v1.702c0 .7.4 1 1.1 1h.7c.7 0 1-.402 1-1.102v-28.5c0-.7-1.1-1.1-1.8-1.1h-.8zm-77.7.1c-.7 0-.3.402-.3 1.102v24.5c0 4.8 3.2 5.398 5 5.398.8 0 1.1-.4 1.1-1.1v-.7c0-.7-.4-1-.9-1-1-.1-2.3-.4-2.3-3.2V42.68c0-.7-1.1-1.102-1.8-1.102h-.8zM79 44.18c-.7 0-1.1.4-1.1 1.1v19c0 5.2 2.9 8.1 7.7 8.1.9 0 1.2-.3 1.2-1v-.6c0-.8-.3-1-1.2-1.1-1.7-.1-4.8-.7-4.8-5.8v-11h4.5c.7 0 1.1-.3 1.1-1v-.302c0-.7-.4-1.1-1.1-1.1h-4.5v-5.2c0-.7-.3-1.098-1-1.098H79zm-40.33 5.6c-6 0-10.8 4.3-10.9 11.5 0 6.8 5 11.5 11.5 11.5 3.5 0 6.1-1.5 7.3-2.4.5-.4.6-.9.3-1.4l-.3-.5c-.3-.6-.8-.7-1.4-.3-1 .8-3 2-5.8 2-4.5 0-8.4-3.2-8.5-8.8h15.9c.6 0 1.1-.5 1.1-1.1 0-6.3-3.3-10.5-9.2-10.5zm62.13 0c-6.5 0-11.5 4.8-11.6 11.6 0 6.8 5 11.5 11.5 11.5 4 0 6.7-1.902 7.8-2.802.5-.5.6-.9.3-1.5l-.3-.398c-.4-.6-.8-.7-1.4-.3-1 .9-3.1 2.3-6.2 2.3-4.8 0-8.6-3.6-8.6-8.8 0-5.3 3.8-8.9 8.6-8.9 2.6 0 4.5 1.3 5.5 2 .6.4 1.1.4 1.5-.2l.3-.5c.5-.6.4-1.1-.1-1.5-1.1-.9-3.5-2.5-7.3-2.5zm33.8 0c-6.4 0-11.6 4.9-11.6 11.4 0 6.6 5.2 11.6 11.6 11.6 6.4 0 11.6-5 11.6-11.6 0-6.5-5.2-11.4-11.6-11.4zm-64.692.335c-.245.04-.48.203-.705.47l-4.047 4.825-3.03 3.61-4.585-5.467-2.487-2.967c-.225-.268-.48-.415-.744-.438-.266-.022-.54.078-.808.303l-.613.515c-.538.45-.51.948-.06 1.484l4.05 4.823 3.356 4-4.916 5.858-.01.015-2.48 2.955c-.45.536-.4 1.1.137 1.55l.613.512c.536.45 1.023.337 1.473-.2L59.1 67.14l3.03-3.61 4.585 5.466.01.01 2.48 2.957c.45.536 1.013.585 1.55.135l.612-.514c.536-.45.51-.948.06-1.484l-4.05-4.825-3.357-4 4.916-5.857.01-.014 2.48-2.955c.45-.537.4-1.102-.137-1.552l-.614-.513c-.268-.225-.523-.31-.768-.27zm82.192.164c-.7 0-1 .4-1 1.1v12.9c0 5.7 4.2 8.5 9.4 8.5s9.4-2.8 9.4-8.5v-12.9c.1-.7-.3-1.1-1-1.1h-.8c-.7 0-1.1.4-1.1 1.1v12.1c0 3.4-2.2 6.5-6.5 6.5-4.2 0-6.5-3.1-6.5-6.5v-12.1c0-.7-.4-1.1-1.1-1.1h-.8zm-113.53 2c3.2 0 6 2.3 6.2 6.9h-13.8c.7-4.5 3.9-6.9 7.6-6.9zm96.03.2c4.7 0 8.5 3.7 8.5 8.7 0 5.2-3.8 9-8.5 9s-8.5-3.9-8.6-9c0-4.9 3.9-8.7 8.6-8.7zm50.1 0c4.7 0 7 4.3 7 8.8 0 6.3-3.4 8.9-7.1 8.9-4.1 0-6.9-3.5-7-8.9 0-5.6 3.2-8.8 7.1-8.8z" style="line-height:normal;text-indent:0;text-align:start;text-decoration-line:none;text-decoration-style:solid;text-decoration-color:#000000;text-transform:none;block-progression:tb;isolation:auto;mix-blend-mode:normal" color="#000" font-family="sans-serif" white-space="normal" overflow="visible" solid-color="#000000"/></svg>